<svg version="1.2" baseProfile="tiny-ps" xmlns="http://www.w3.org/2000/svg" viewBox="0 0 61 60" width="61" height="60">
	<title>Features</title>
	<style>
		tspan { white-space:pre }
		.shp0 { fill: #ffb434 } 
	</style>
	<g id="Features">
		<g id="Free SHipping">
			<g id="Icon">
				<path id="Icon_bg" class="shp0" d="M1 0L61 0L61 60L1 60L1 0ZM48.2 28.6L47.16 24.5C47.45 24.44 47.66 24.2 47.66 23.9L47.66 23.24C47.66 21.81 46.48 20.64 45.03 20.64L40.31 20.64L40.31 19.28C40.31 18.57 39.73 18 39.02 18L14.96 18C14.25 18 13.67 18.57 13.67 19.28L13.67 30.5C13.67 30.84 13.95 31.12 14.3 31.12C14.64 31.12 14.92 30.84 14.92 30.5L14.92 19.28C14.92 19.25 14.94 19.24 14.96 19.24L39.02 19.24C39.04 19.24 39.06 19.25 39.06 19.28L39.06 30.5C39.06 30.84 39.34 31.12 39.68 31.12C40.03 31.12 40.31 30.84 40.31 30.5L40.31 29.8L47.7 29.8C47.7 29.8 47.7 29.8 47.7 29.8C47.7 29.8 47.7 29.8 47.7 29.8C48.61 29.8 49.38 30.39 49.65 31.2L47.7 31.2C47.35 31.2 47.07 31.48 47.07 31.82L47.07 33.14C47.07 34.21 47.95 35.08 49.04 35.08L49.75 35.08L49.75 37.8L48.11 37.8C47.57 36.27 46.09 35.16 44.36 35.16C42.63 35.16 41.15 36.27 40.61 37.8L40.31 37.8L40.31 33.14C40.31 32.8 40.03 32.52 39.68 32.52C39.34 32.52 39.06 32.8 39.06 33.14L39.06 37.8L26.06 37.8C25.52 36.27 24.05 35.16 22.31 35.16C20.58 35.16 19.1 36.27 18.56 37.8L14.96 37.8C14.94 37.8 14.92 37.78 14.92 37.76L14.92 36.4L17.64 36.4C17.98 36.4 18.26 36.12 18.26 35.78C18.26 35.44 17.98 35.16 17.64 35.16L11.62 35.16C11.28 35.16 11 35.44 11 35.78C11 36.12 11.28 36.4 11.62 36.4L13.67 36.4L13.67 37.76C13.67 38.47 14.25 39.04 14.96 39.04L18.35 39.04C18.35 39.05 18.35 39.07 18.35 39.08C18.35 41.24 20.13 43 22.31 43C24.5 43 26.28 41.24 26.28 39.08C26.28 39.07 26.28 39.05 26.28 39.04L40.39 39.04C40.39 39.05 40.39 39.07 40.39 39.08C40.39 41.24 42.17 43 44.36 43C46.55 43 48.33 41.24 48.33 39.08C48.33 39.07 48.33 39.05 48.33 39.04L50.37 39.04C50.72 39.04 51 38.76 51 38.42L51 31.82C51 30.19 49.78 28.84 48.2 28.6ZM40.31 24.52L45.88 24.52L46.9 28.56L40.31 28.56L40.31 24.52ZM45.03 21.88C45.79 21.88 46.41 22.49 46.41 23.24L46.41 23.28L40.31 23.28L40.31 21.88L45.03 21.88ZM22.31 41.76C20.82 41.76 19.6 40.56 19.6 39.08C19.6 37.6 20.82 36.4 22.31 36.4C23.81 36.4 25.03 37.6 25.03 39.08C25.03 40.56 23.81 41.76 22.31 41.76ZM44.36 41.76C42.86 41.76 41.65 40.56 41.65 39.08C41.65 37.6 42.86 36.4 44.36 36.4C45.86 36.4 47.07 37.6 47.07 39.08C47.07 40.56 45.86 41.76 44.36 41.76ZM49.04 33.84C48.65 33.84 48.33 33.53 48.33 33.14L48.33 32.44L49.75 32.44L49.75 33.84L49.04 33.84ZM22.31 37.8C21.6 37.8 21.02 38.38 21.02 39.08C21.02 39.79 21.6 40.36 22.31 40.36C23.03 40.36 23.61 39.79 23.61 39.08C23.61 38.38 23.03 37.8 22.31 37.8ZM44.36 37.8C43.65 37.8 43.07 38.38 43.07 39.08C43.07 39.79 43.65 40.36 44.36 40.36C45.07 40.36 45.65 39.79 45.65 39.08C45.65 38.38 45.07 37.8 44.36 37.8ZM27.03 35.78C27.03 36.12 27.31 36.4 27.66 36.4L37.01 36.4C37.36 36.4 37.64 36.12 37.64 35.78C37.64 35.44 37.36 35.16 37.01 35.16L27.66 35.16C27.31 35.16 27.03 35.44 27.03 35.78ZM12.96 33.76L20.98 33.76C21.32 33.76 21.6 33.48 21.6 33.14C21.6 32.8 21.32 32.52 20.98 32.52L12.96 32.52C12.61 32.52 12.33 32.8 12.33 33.14C12.33 33.48 12.61 33.76 12.96 33.76ZM31.89 24.12L26.32 29.62L23.42 26.76C23.18 26.52 22.78 26.52 22.54 26.76C22.29 27 22.29 27.39 22.54 27.64L25.88 30.94C26 31.06 26.16 31.12 26.32 31.12C26.48 31.12 26.64 31.06 26.76 30.94L32.78 25C33.02 24.75 33.02 24.36 32.78 24.12C32.53 23.88 32.14 23.88 31.89 24.12Z" />
			</g>
		</g>
	</g>
</svg>