<svg version="1.2" baseProfile="tiny-ps" xmlns="http://www.w3.org/2000/svg" viewBox="0 0 61 60" width="61" height="60">
	<title>Features</title>
	<style>
		tspan { white-space:pre }
		.shp0 { fill: #34c3ff } 
	</style>
	<g id="Features">
		<g id="30 days return">
			<g id="Icon">
				<path id="Icon_bg" class="shp0" d="M1 0L61 0L61 60L1 60L1 0ZM43 20.44L41.55 20.33L41.43 22.02C39.1 19.47 35.83 18 32.36 18C25.54 18 20 23.61 20 30.5C20 37.39 25.54 43 32.36 43C36.48 43 40.32 40.93 42.62 37.45L41.42 36.63C39.38 39.7 35.99 41.53 32.36 41.53C26.35 41.53 21.45 36.58 21.45 30.5C21.45 24.42 26.35 19.47 32.36 19.47C35.45 19.47 38.36 20.79 40.42 23.08L38.56 22.94L38.46 24.41L42.69 24.72L43 20.44ZM24.07 30.78C24.21 30.85 24.62 31.02 25.01 31.02C25.37 31.02 25.62 30.91 25.62 30.65C25.62 30.39 25.32 30.24 25 30.24L24.54 30.24L24.54 29.51L24.98 29.51C25.22 29.51 25.53 29.43 25.53 29.2C25.53 29.03 25.36 28.91 25.03 28.91C24.68 28.91 24.31 29.06 24.17 29.14L23.95 28.4C24.2 28.24 24.7 28.1 25.26 28.1C26.08 28.1 26.59 28.49 26.59 29.03C26.59 29.41 26.37 29.71 25.89 29.87L25.89 29.88C26.33 29.93 26.71 30.26 26.71 30.72C26.71 31.42 26.05 31.83 25.1 31.83C24.55 31.83 24.09 31.7 23.85 31.55L24.07 30.78ZM28.68 31.83C27.62 31.83 27.19 30.95 27.19 29.97C27.19 28.99 27.62 28.1 28.69 28.1C29.76 28.1 30.19 28.99 30.19 29.97C30.19 30.95 29.76 31.83 28.69 31.83L28.68 31.83ZM28.7 31.08C28.97 31.08 29.16 30.73 29.16 29.97C29.16 29.2 28.97 28.86 28.69 28.86C28.41 28.86 28.22 29.2 28.22 29.97C28.22 30.73 28.41 31.08 28.69 31.08L28.7 31.08ZM31.88 28.08C32.23 28.03 32.7 28 33.18 28C33.95 28 34.43 28.12 34.84 28.38C35.27 28.65 35.57 29.11 35.57 29.79C35.57 30.57 35.25 31.04 34.89 31.31C34.44 31.66 33.75 31.81 32.97 31.81C32.43 31.81 32.08 31.78 31.88 31.75L31.88 28.08ZM32.91 31C32.97 31.01 33.08 31.01 33.15 31.01C33.91 31.02 34.46 30.66 34.46 29.85C34.46 29.1 33.94 28.79 33.27 28.79C33.08 28.79 32.97 28.81 32.91 28.82L32.91 31ZM38.64 31.09C38.64 31.38 38.65 31.65 38.68 31.77L37.75 31.77L37.7 31.54L37.67 31.54C37.48 31.76 37.19 31.83 36.88 31.83C36.29 31.83 35.94 31.42 35.94 30.98C35.94 30.24 36.59 29.91 37.61 29.91L37.61 29.89C37.61 29.79 37.54 29.67 37.14 29.67C36.84 29.67 36.5 29.78 36.32 29.88L36.14 29.23C36.31 29.14 36.71 28.97 37.32 28.97C38.24 28.97 38.64 29.45 38.64 30.18L38.64 31.09ZM37.64 30.54C37.19 30.54 36.97 30.65 36.97 30.88C36.97 31.03 37.07 31.12 37.26 31.12C37.42 31.12 37.59 31 37.63 30.84C37.64 30.79 37.64 30.74 37.64 30.69L37.64 30.54ZM40.08 29.04L40.44 30.22C40.48 30.38 40.54 30.6 40.58 30.73L40.6 30.73C40.64 30.59 40.68 30.37 40.71 30.22L40.98 29.04L42.11 29.04L41.54 30.6C41.04 31.98 40.75 32.37 40.45 32.62C40.12 32.89 39.77 32.98 39.48 33L39.29 32.12C39.38 32.12 39.5 32.09 39.62 32.05C39.76 32 39.91 31.88 39.97 31.8C40.01 31.76 40.03 31.71 40.03 31.67C40.03 31.64 40.02 31.6 39.99 31.51L38.93 29.04L40.08 29.04Z" />
			</g>
		</g>
	</g>
</svg>