<svg xmlns="http://www.w3.org/2000/svg" viewBox="0 0 163 20" width="163" height="20">
	<style>
		tspan { white-space:pre }
		.shp0 { fill: #29282d } 
		.shp1 { fill: #fe3e57 } 
	</style>
	<g id="Trending products">
		<g id="Item_2">
			<g id="Hover effect">
				<g id="icon">
					<path id="love" class="shp0" d="M156.89 0C154.47 0 152.93 1.42 152.07 2.62C151.85 2.93 151.66 3.24 151.5 3.53C151.34 3.24 151.15 2.93 150.93 2.62C150.07 1.42 148.53 0 146.11 0C144.38 0 142.81 0.7 141.68 1.96C140.59 3.17 140 4.79 140 6.52C140 8.41 140.74 10.16 142.35 12.03C143.78 13.71 145.85 15.44 148.24 17.45C149.13 18.19 150.05 18.97 151.03 19.81L151.06 19.83C151.18 19.94 151.34 20 151.5 20C151.66 20 151.82 19.94 151.95 19.83L151.97 19.81C152.95 18.97 153.88 18.19 154.77 17.45C157.16 15.44 159.22 13.71 160.65 12.03C162.26 10.16 163.01 8.41 163.01 6.52C163.01 4.79 162.41 3.17 161.33 1.96C160.19 0.7 158.62 0 156.89 0ZM153.89 16.44C153.12 17.08 152.33 17.74 151.5 18.46C150.67 17.74 149.88 17.08 149.11 16.44C144.43 12.52 141.34 9.93 141.34 6.52C141.34 5.11 141.82 3.81 142.69 2.84C143.56 1.86 144.78 1.33 146.11 1.33C147.96 1.33 149.15 2.44 149.83 3.39C150.44 4.23 150.75 5.08 150.86 5.4C150.95 5.68 151.21 5.86 151.5 5.86C151.79 5.86 152.05 5.68 152.14 5.4C152.25 5.08 152.57 4.23 153.17 3.39C153.85 2.44 155.05 1.33 156.89 1.33C158.23 1.33 159.44 1.86 160.32 2.84C161.18 3.81 161.66 5.11 161.66 6.52C161.66 9.93 158.57 12.52 153.89 16.44Z" />
					<path id="search" class="shp0" d="M18.71 18.22L14.03 13.27C15.23 11.81 15.89 9.98 15.89 8.08C15.89 3.62 12.33 0 7.95 0C3.57 0 0.01 3.62 0.01 8.08C0.01 12.53 3.57 16.15 7.95 16.15C9.59 16.15 11.16 15.65 12.5 14.69L17.22 19.68C17.41 19.89 17.68 20 17.96 20C18.23 20 18.49 19.9 18.68 19.71C19.09 19.31 19.1 18.64 18.71 18.22L18.71 18.22ZM7.95 2.11C11.18 2.11 13.82 4.78 13.82 8.08C13.82 11.37 11.18 14.05 7.95 14.05C4.71 14.05 2.08 11.37 2.08 8.08C2.08 4.78 4.71 2.11 7.95 2.11L7.95 2.11ZM7.95 2.11" />
					<path id="bag" class="shp1" d="M88 17.29L86.85 4.4C86.83 4.11 86.59 3.89 86.31 3.89L83.95 3.89C83.92 1.74 82.16 0 80.01 0C77.85 0 76.09 1.74 76.06 3.89L73.7 3.89C73.42 3.89 73.18 4.11 73.16 4.4L72.01 17.29C72.01 17.31 72.01 17.33 72.01 17.34C72.01 18.81 73.35 20.01 75.01 20.01L85 20.01C86.66 20.01 88 18.81 88 17.34C88 17.33 88 17.31 88 17.29L88 17.29ZM80.01 1.11C81.55 1.11 82.82 2.35 82.85 3.89L77.16 3.89C77.19 2.35 78.46 1.11 80.01 1.11L80.01 1.11ZM85 18.9L75.01 18.9C73.97 18.9 73.13 18.21 73.11 17.37L74.21 5L76.05 5L76.05 6.68C76.05 6.98 76.3 7.23 76.6 7.23C76.91 7.23 77.16 6.98 77.16 6.68L77.16 5L82.85 5L82.85 6.68C82.85 6.98 83.09 7.23 83.4 7.23C83.71 7.23 83.95 6.98 83.95 6.68L83.95 5L85.8 5L86.9 17.37C86.88 18.21 86.04 18.9 85 18.9L85 18.9ZM85 18.9" />
				</g>
			</g>
		</g>
	</g>
</svg>