<svg xmlns="http://www.w3.org/2000/svg" viewBox="0 0 15 15" width="15" height="15">
	<style>
		tspan { white-space:pre }
		.shp0 { fill: #ffffff } 
	</style>
	<g id="Sidebar">
		<g id="Search widget">
			<g id="Search bar">
				<path id="search_icon" class="shp0" d="M11.01 9.68C11.75 8.67 12.19 7.44 12.19 6.09C12.19 2.73 9.45 0 6.09 0C2.73 0 0 2.73 0 6.09C0 9.45 2.73 12.19 6.09 12.19C7.44 12.19 8.67 11.75 9.68 11.01L13.67 15L15 13.67L11.01 9.68L11.01 9.68ZM6.09 10.31C3.77 10.31 1.87 8.42 1.87 6.09C1.87 3.77 3.77 1.87 6.09 1.87C8.42 1.87 10.31 3.77 10.31 6.09C10.31 8.42 8.42 10.31 6.09 10.31L6.09 10.31ZM6.09 10.31" />
			</g>
		</g>
	</g>
</svg>